<svg version="1.1" xmlns="http://www.w3.org/2000/svg" xmlns:xlink="http://www.w3.org/1999/xlink" width="397.2741" height="133.37213" viewBox="0,0,397.2741,133.37213"><g transform="translate(-41.36297,-118.2321)"><g data-paper-data="{&quot;isPaintingLayer&quot;:true}" fill-rule="nonzero" stroke="none" stroke-width="1" stroke-linecap="butt" stroke-linejoin="miter" stroke-miterlimit="10" stroke-dasharray="" stroke-dashoffset="0" style="mix-blend-mode: normal"><path d="M100.21034,209.03943v-76.67187h19.40625c6.69792,0 11.90625,0.83854 15.625,2.51563c3.71875,1.66666 6.33334,4.28646 7.84375,7.85938c1.52084,3.5625 2.28125,8.18229 2.28125,13.85938v27.82813c0,5.73959 -0.76041,10.42709 -2.28125,14.0625c-1.51041,3.625 -4.10937,6.29166 -7.79687,8c-3.6875,1.69791 -8.84896,2.54688 -15.48437,2.54688zM117.16346,197.30505h2.64063c2.59375,0 4.45833,-0.38021 5.59375,-1.14062c1.13541,-0.76041 1.84375,-1.89584 2.125,-3.40625c0.28125,-1.51041 0.42188,-3.40104 0.42188,-5.67187v-33.42187c0,-2.27084 -0.17187,-4.09896 -0.51562,-5.48437c-0.34375,-1.39584 -1.08334,-2.40625 -2.21875,-3.03125c-1.13541,-0.63541 -2.96875,-0.95312 -5.5,-0.95312h-2.54687z" fill="#004cad"/><path d="M374.80795,209.03943v-76.67187h21.10938c5.17708,0 9.65625,0.56771 13.4375,1.70313c3.79167,1.13541 6.74479,3.17188 8.85938,6.10938c2.11458,2.9375 3.17188,7.08334 3.17188,12.4375c0,3.15625 -0.25521,5.96875 -0.76562,8.4375c-0.5,2.45834 -1.42708,4.58854 -2.78125,6.39063c-1.35417,1.79166 -3.29687,3.28646 -5.82812,4.48438l10.51563,37.10938h-17.51562l-8.42187,-34.35937h-4.82812v34.35938zM391.76109,164.93005h4.73438c2.39583,0 4.25521,-0.42709 5.57813,-1.28125c1.32292,-0.85416 2.25,-2.08334 2.78125,-3.6875c0.54167,-1.61459 0.8125,-3.55729 0.8125,-5.82812c0,-3.28125 -0.59896,-5.83334 -1.79687,-7.65625c-1.19792,-1.83334 -3.40625,-2.75 -6.625,-2.75h-5.48437z" fill="#004cad"/><path d="M224.39924,209.03943v-76.67187h25.75c4.60416,0 8.39063,0.86979 11.35938,2.60938c2.96875,1.72916 5.17708,4.25 6.625,7.5625c1.45833,3.3125 2.1875,7.33854 2.1875,12.07813c0,5.92709 -0.97917,10.45313 -2.9375,13.57813c-1.95833,3.125 -4.60937,5.28646 -7.95312,6.48438c-3.34375,1.19791 -7.09896,1.79688 -11.26563,1.79688h-6.8125v32.5625zM241.35236,164.6488h5.67188c2.08334,0 3.66146,-0.38021 4.73438,-1.14062c1.07291,-0.76041 1.78125,-1.89584 2.125,-3.40625c0.35417,-1.51041 0.53125,-3.4375 0.53125,-5.78125c0,-1.94791 -0.14583,-3.66146 -0.4375,-5.14062c-0.28125,-1.48959 -0.95834,-2.67709 -2.03125,-3.5625c-1.07291,-0.88541 -2.74479,-1.32812 -5.01562,-1.32812h-5.57812z" fill="#004cad"/><path d="M278.44793,132.36755h25.74997c4.60417,0 8.39063,0.86979 11.35938,2.60938c2.96875,1.72916 5.17708,4.25 6.625,7.5625c1.45833,3.3125 2.1875,7.33854 2.1875,12.07813c0,5.92709 -0.97917,10.45313 -2.9375,13.57813c-1.95833,3.125 -4.60937,5.28646 -7.95312,6.48438c-3.34375,1.19791 -7.09896,1.79688 -11.26562,1.79688h-6.8125v32.5625h-16.9531zM295.40101,164.6488h5.67188c2.08333,0 3.66146,-0.38021 4.73438,-1.14062c1.07292,-0.76041 1.78125,-1.89584 2.125,-3.40625c0.35417,-1.51041 0.53125,-3.4375 0.53125,-5.78125c0,-1.94791 -0.14583,-3.66146 -0.4375,-5.14062c-0.28125,-1.48959 -0.95833,-2.67709 -2.03125,-3.5625c-1.07292,-0.88541 -2.74479,-1.32812 -5.01562,-1.32812h-5.57812z" fill="#004cad"/><path d="M45.64675,209.23943l14.875,-41.26562c0,0 -5.09291,-22.1327 -15.20312,-42.80625c-1.82565,-3.73311 -3.95566,-6.71394 -3.95566,-6.71394c0,0 3.19432,-0.54394 5.04079,0.07291c0.21527,0.07191 0.83756,0.94693 1.01857,1.04831c1.86771,1.04599 1.23808,2.98524 3.77977,4.99784c5.35077,4.23694 5.53408,3.80138 11.51653,11.59488c2.70455,3.52329 8.02187,17.13438 8.02187,17.13438l6.8125,-20.73437h14.10938l-13.45312,39.84375l14.96875,36.82813h-15.90625l-9.375,-22.90625l-8.23437,22.90625z" fill="#004cad"/><path d="M332.49662,209.03943v-76.67187h34.46875v11.54688h-17.51562v19.03125h13.34375v11.73438h-13.34375v22.90625h17.70313v11.45313z" fill="#004cad"/><path d="M151.99964,209.03943v-10.21875l18.73438,-55h-17.89062v-11.45312h34.54688v9.5625l-19.01562,55.65625h19.20313v11.45313z" fill="#004cad"/><path d="M196.01707,209.03943v-76.67187h16.9375v76.67188z" fill="#004cad"/><path d="M105.21033,209.03943v-76.67187h19.40625c6.69792,0 11.90625,0.83854 15.625,2.51563c3.71875,1.66666 6.33334,4.28646 7.84375,7.85938c1.52084,3.5625 2.28125,8.18229 2.28125,13.85938v27.82813c0,5.73959 -0.76041,10.42709 -2.28125,14.0625c-1.51041,3.625 -4.10937,6.29166 -7.79687,8c-3.6875,1.69791 -8.84896,2.54688 -15.48437,2.54688zM122.16346,197.30505h2.64063c2.59375,0 4.45833,-0.38021 5.59375,-1.14062c1.13541,-0.76041 1.84375,-1.89584 2.125,-3.40625c0.28125,-1.51041 0.42188,-3.40104 0.42188,-5.67187v-33.42187c0,-2.27084 -0.17187,-4.09896 -0.51562,-5.48437c-0.34375,-1.39584 -1.08334,-2.40625 -2.21875,-3.03125c-1.13541,-0.63541 -2.96875,-0.95312 -5.5,-0.95312h-2.54687z" fill="#0096ff"/><path d="M379.80795,209.03943v-76.67187h21.10938c5.17708,0 9.65625,0.56771 13.4375,1.70313c3.79167,1.13541 6.74479,3.17188 8.85938,6.10938c2.11458,2.9375 3.17188,7.08334 3.17188,12.4375c0,3.15625 -0.25521,5.96875 -0.76562,8.4375c-0.5,2.45834 -1.42708,4.58854 -2.78125,6.39063c-1.35417,1.79166 -3.29687,3.28646 -5.82812,4.48438l10.51563,37.10938h-17.51562l-8.42187,-34.35937h-4.82812v34.35938zM396.76109,164.93005h4.73438c2.39583,0 4.25521,-0.42709 5.57813,-1.28125c1.32292,-0.85416 2.25,-2.08334 2.78125,-3.6875c0.54167,-1.61459 0.8125,-3.55729 0.8125,-5.82812c0,-3.28125 -0.59896,-5.83334 -1.79687,-7.65625c-1.19792,-1.83334 -3.40625,-2.75 -6.625,-2.75h-5.48437z" fill="#0096ff"/><path d="M229.39923,209.03943v-76.67187h25.75c4.60417,0 8.39063,0.86979 11.35938,2.60938c2.96875,1.72916 5.17708,4.25 6.625,7.5625c1.45833,3.3125 2.1875,7.33854 2.1875,12.07813c0,5.92709 -0.97917,10.45313 -2.9375,13.57813c-1.95833,3.125 -4.60937,5.28646 -7.95312,6.48438c-3.34375,1.19791 -7.09896,1.79688 -11.26562,1.79688h-6.8125v32.5625zM246.35236,164.6488h5.67188c2.08334,0 3.66146,-0.38021 4.73438,-1.14062c1.07292,-0.76041 1.78125,-1.89584 2.125,-3.40625c0.35417,-1.51041 0.53125,-3.4375 0.53125,-5.78125c0,-1.94791 -0.14583,-3.66146 -0.4375,-5.14062c-0.28125,-1.48959 -0.95833,-2.67709 -2.03125,-3.5625c-1.07292,-0.88541 -2.74479,-1.32812 -5.01563,-1.32812h-5.57812z" fill="#0096ff"/><path d="M283.44793,132.36755h25.74997c4.60417,0 8.39063,0.86979 11.35938,2.60938c2.96875,1.72916 5.17708,4.25 6.625,7.5625c1.45833,3.3125 2.1875,7.33854 2.1875,12.07813c0,5.92709 -0.97917,10.45313 -2.9375,13.57813c-1.95833,3.125 -4.60937,5.28646 -7.95312,6.48438c-3.34375,1.19791 -7.09896,1.79688 -11.26562,1.79688h-6.8125v32.5625h-16.9531zM300.40099,164.6488h5.67188c2.08333,0 3.66146,-0.38021 4.73438,-1.14062c1.07292,-0.76041 1.78125,-1.89584 2.125,-3.40625c0.35417,-1.51041 0.53125,-3.4375 0.53125,-5.78125c0,-1.94791 -0.14583,-3.66146 -0.4375,-5.14062c-0.28125,-1.48959 -0.95833,-2.67709 -2.03125,-3.5625c-1.07292,-0.88541 -2.74479,-1.32812 -5.01562,-1.32812h-5.57812z" fill="#0096ff"/><path d="M50.64675,209.23943l14.875,-41.26562c0,0 -5.09291,-22.1327 -15.20312,-42.80625c-1.82565,-3.73311 -3.95566,-6.71394 -3.95566,-6.71394c0,0 4.93812,2.23826 9.83913,6.11906c5.35077,4.23694 5.53408,3.80138 11.51653,11.59488c2.70455,3.52329 8.02187,17.13438 8.02187,17.13438l6.8125,-20.73437h14.10938l-13.45312,39.84375l14.96875,36.82813h-15.90625l-9.375,-22.90625l-8.23437,22.90625z" fill="#0096ff"/><path d="M337.49662,209.03943v-76.67187h34.46875v11.54688h-17.51562v19.03125h13.34375v11.73438h-13.34375v22.90625h17.70313v11.45313z" fill="#0096ff"/><path d="M156.99964,209.03943v-10.21875l18.73438,-55h-17.89062v-11.45312h34.54688v9.5625l-19.01562,55.65625h19.20313v11.45313z" fill="#0096ff"/><path d="M201.01707,209.03943v-76.67187h16.9375v76.67188z" fill="#0096ff"/><path d="M429.61124,235.05398c0.86311,1.76491 3.21092,2.9214 5.12221,4.0964c2.13145,1.31034 3.79499,2.54061 3.79499,2.54061c0,0 -4.73078,-1.4017 -8.88482,-3.03907c-2.61603,-1.03114 -4.93371,-2.22537 -5.91584,-3.00306c-5.35077,-4.23694 -5.53408,-3.80137 -11.51653,-11.59488c-1.48842,-1.93901 -3.95569,-6.87084 -5.70497,-10.9703c-0.7362,-1.72528 -1.05059,-2.95104 -1.50034,-4.06486c1.35492,0.03304 2.76876,-0.07342 4.1076,-0.08956c3.3786,-0.04073 6.65621,-0.07126 10.07619,0.00841c2.4991,7.64975 5.97509,17.02415 10.42153,26.11631z" data-paper-data="{&quot;index&quot;:null}" fill="#004cad"/><path d="M434.68141,235.05398c1.82565,3.73311 3.95566,6.71393 3.95566,6.71393c0,0 -4.93812,-2.23825 -9.83913,-6.11905c-5.35077,-4.23694 -5.53408,-3.80137 -11.51653,-11.59488c-1.88912,-2.46101 -5.0061,-9.51582 -6.72297,-13.66701c-0.14711,-0.35571 -0.27692,-0.6901 -0.3972,-0.99846c-0.06628,-0.16991 -0.11212,-0.33191 -0.17392,-0.48522c0.01408,0.0004 4.79103,-1.07547 9.44275,-1.08397c3.16855,-0.00579 6.13469,1.04029 8.0622,1.08241c2.50174,7.67031 2.72081,17.01532 7.18914,26.15225z" data-paper-data="{&quot;index&quot;:null}" fill="#0096ff"/><g><path d="M107.1318,251.07409v-30.90867h8.54647v2.47398c1.14596,-1.11383 2.32939,-1.901 3.55032,-2.36153c1.23163,-0.46052 2.49004,-0.69079 3.77522,-0.69079c1.25305,0 2.3294,0.31059 3.22902,0.93176c0.91034,0.62117 1.60112,1.53687 2.07236,2.74708c1.21021,-1.34944 2.47933,-2.29727 3.80736,-2.84347c1.33873,-0.55691 2.68817,-0.83537 4.04833,-0.83537c1.21021,0 2.25978,0.29452 3.1487,0.88357c0.88892,0.58904 1.58506,1.44583 2.08843,2.57037c0.50336,1.11383 0.75504,2.45791 0.75504,4.03226v24.0008h-8.56254v-23.10118c0,-0.85679 -0.14994,-1.46725 -0.44981,-1.83138c-0.29988,-0.37484 -0.75504,-0.56227 -1.36551,-0.56227c-0.35342,0 -0.79789,0.09639 -1.33338,0.28917c-0.53549,0.19278 -1.05492,0.46588 -1.55829,0.8193c0,0.07497 0,0.13923 0,0.19278c0,0.05355 0,0.11781 0,0.19278v24.0008h-8.45009v-23.10118c0,-0.85679 -0.16065,-1.46725 -0.48194,-1.83138c-0.3213,-0.37484 -0.78182,-0.56227 -1.38157,-0.56227c-0.39627,0 -0.85144,0.09639 -1.36551,0.28917c-0.51407,0.19278 -1.02279,0.46588 -1.52615,0.8193v24.38636z" fill="#0066af"/><path d="M91.46179,251.60423c-2.20623,0 -4.1233,-0.36949 -5.7512,-1.10847c-1.61719,-0.74969 -2.86489,-1.87423 -3.7431,-3.37361c-0.8675,-1.49938 -1.30125,-3.37361 -1.30125,-5.62268v-11.75943c0,-2.24907 0.43375,-4.11794 1.30125,-5.60661c0.87821,-1.49938 2.12591,-2.62392 3.7431,-3.37361c1.6279,-0.74969 3.54497,-1.12453 5.7512,-1.12453c2.20623,0 4.11794,0.37484 5.73513,1.12453c1.6279,0.74969 2.88631,1.87423 3.77522,3.37361c0.89963,1.48867 1.34944,3.35754 1.34944,5.60661v11.75943c0,2.24907 -0.44982,4.1233 -1.34944,5.62268c-0.88892,1.49938 -2.14733,2.62392 -3.77522,3.37361c-1.61719,0.73898 -3.5289,1.10847 -5.73513,1.10847zM91.50998,245.83697c0.57833,0 1.02815,-0.14994 1.34944,-0.44982c0.3213,-0.31059 0.54085,-0.73898 0.65866,-1.28518c0.12852,-0.55691 0.19278,-1.22628 0.19278,-2.0081v-12.93216c0,-0.79253 -0.06426,-1.4619 -0.19278,-2.0081c-0.11781,-0.55691 -0.33736,-0.98531 -0.65866,-1.28518c-0.3213,-0.29987 -0.77111,-0.44982 -1.34944,-0.44982c-0.56762,0 -1.01208,0.14994 -1.33338,0.44982c-0.3213,0.29987 -0.55155,0.72827 -0.69078,1.28518c-0.13923,0.5462 -0.20884,1.21557 -0.20884,2.0081v12.93216c0,0.78182 0.06961,1.45119 0.20884,2.0081c0.13923,0.5462 0.36949,0.9746 0.69078,1.28518c0.3213,0.29987 0.76576,0.44982 1.33338,0.44982z" fill="#0066af"/><path d="M66.32828,251.60423c-2.23836,0 -4.15007,-0.40698 -5.73513,-1.22093c-1.58506,-0.82466 -2.80599,-2.00274 -3.66277,-3.53426c-0.85679,-1.53151 -1.28518,-3.38432 -1.28518,-5.55842v-11.34174c0,-2.20623 0.4284,-4.0751 1.28518,-5.60661c0.85679,-1.53151 2.07772,-2.69888 3.66277,-3.50212c1.58506,-0.80324 3.49677,-1.20486 5.73513,-1.20486c2.21694,0 4.09652,0.34271 5.63874,1.02814c1.55293,0.67472 2.73637,1.69752 3.55032,3.06838c0.82466,1.37086 1.23699,3.10586 1.23699,5.20499v3.26116h-8.38582v-3.51819c0,-0.82466 -0.08032,-1.45654 -0.24097,-1.89565c-0.16065,-0.44982 -0.39626,-0.7604 -0.70685,-0.93176c-0.29988,-0.18207 -0.66401,-0.2731 -1.09241,-0.2731c-0.4284,0 -0.78717,0.1178 -1.07634,0.35342c-0.27845,0.22491 -0.4873,0.59439 -0.62653,1.10847c-0.13923,0.51408 -0.20884,1.23699 -0.20884,2.16875v12.83577c0,1.38158 0.166,2.32404 0.49801,2.82741c0.34271,0.50336 0.83537,0.75505 1.47796,0.75505c0.46052,0 0.83002,-0.09639 1.10847,-0.28917c0.28917,-0.20349 0.50336,-0.52478 0.64259,-0.96389c0.14994,-0.44982 0.22491,-1.04957 0.22491,-1.79926v-4.11259h8.38582v3.7431c0,2.067 -0.41768,3.802 -1.25305,5.20499c-0.83537,1.40299 -2.02952,2.45256 -3.58245,3.1487c-1.55293,0.69614 -3.41645,1.04421 -5.59055,1.04421z" fill="#004cad"/><path d="M43.07647,251.07409v-8.24124h8.24124v8.24124z" fill="#0066af"/></g><path d="M109.62204,251.07409v-30.90867h8.54647v2.47398c1.14596,-1.11383 2.32939,-1.901 3.55032,-2.36153c1.23163,-0.46052 2.49004,-0.69079 3.77522,-0.69079c1.25305,0 2.3294,0.31059 3.22902,0.93176c0.91034,0.62117 1.60112,1.53687 2.07236,2.74708c1.21021,-1.34944 2.47933,-2.29727 3.80736,-2.84347c1.33873,-0.55691 2.68817,-0.83537 4.04833,-0.83537c1.21021,0 2.25978,0.29452 3.1487,0.88357c0.88892,0.58904 1.58506,1.44583 2.08843,2.57037c0.50336,1.11383 0.75504,2.45791 0.75504,4.03226v24.0008h-8.56254v-23.10118c0,-0.85679 -0.14994,-1.46725 -0.44981,-1.83138c-0.29988,-0.37484 -0.75504,-0.56227 -1.36551,-0.56227c-0.35342,0 -0.79789,0.09639 -1.33338,0.28917c-0.53549,0.19278 -1.05492,0.46588 -1.55829,0.8193c0,0.07497 0,0.13923 0,0.19278c0,0.05355 0,0.11781 0,0.19278v24.0008h-8.45009v-23.10118c0,-0.85679 -0.16065,-1.46725 -0.48194,-1.83138c-0.3213,-0.37484 -0.78182,-0.56227 -1.38157,-0.56227c-0.39627,0 -0.85144,0.09639 -1.36551,0.28917c-0.51407,0.19278 -1.02279,0.46588 -1.52615,0.8193v24.38636z" fill="#0096ff"/><path d="" fill="#000000"/><path d="M93.95203,251.60423c-2.20623,0 -4.1233,-0.36949 -5.7512,-1.10847c-1.61719,-0.74969 -2.86489,-1.87423 -3.7431,-3.37361c-0.8675,-1.49938 -1.30125,-3.37361 -1.30125,-5.62268v-11.75943c0,-2.24907 0.43375,-4.11794 1.30125,-5.60661c0.87821,-1.49938 2.12591,-2.62392 3.7431,-3.37361c1.6279,-0.74969 3.54497,-1.12453 5.7512,-1.12453c2.20623,0 4.11794,0.37484 5.73513,1.12453c1.6279,0.74969 2.88631,1.87423 3.77522,3.37361c0.89963,1.48867 1.34944,3.35754 1.34944,5.60661v11.75943c0,2.24907 -0.44982,4.1233 -1.34944,5.62268c-0.88892,1.49938 -2.14733,2.62392 -3.77522,3.37361c-1.61719,0.73898 -3.5289,1.10847 -5.73513,1.10847zM94.00022,245.83697c0.57833,0 1.02815,-0.14994 1.34944,-0.44982c0.3213,-0.31059 0.54085,-0.73898 0.65866,-1.28518c0.12852,-0.55691 0.19278,-1.22628 0.19278,-2.0081v-12.93216c0,-0.79253 -0.06426,-1.4619 -0.19278,-2.0081c-0.11781,-0.55691 -0.33736,-0.98531 -0.65866,-1.28518c-0.3213,-0.29987 -0.77111,-0.44982 -1.34944,-0.44982c-0.56762,0 -1.01208,0.14994 -1.33338,0.44982c-0.3213,0.29987 -0.55155,0.72827 -0.69078,1.28518c-0.13923,0.5462 -0.20884,1.21557 -0.20884,2.0081v12.93216c0,0.78182 0.06961,1.45119 0.20884,2.0081c0.13923,0.5462 0.36949,0.9746 0.69078,1.28518c0.3213,0.29987 0.76576,0.44982 1.33338,0.44982z" fill="#0096ff"/><path d="M68.81852,251.60423c-2.23836,0 -4.15007,-0.40698 -5.73513,-1.22093c-1.58506,-0.82466 -2.80599,-2.00274 -3.66277,-3.53426c-0.85679,-1.53151 -1.28518,-3.38432 -1.28518,-5.55842v-11.34174c0,-2.20623 0.4284,-4.0751 1.28518,-5.60661c0.85679,-1.53151 2.07772,-2.69888 3.66277,-3.50212c1.58506,-0.80324 3.49677,-1.20486 5.73513,-1.20486c2.21694,0 4.09652,0.34271 5.63874,1.02814c1.55293,0.67472 2.73637,1.69752 3.55032,3.06838c0.82466,1.37086 1.23699,3.10586 1.23699,5.20499v3.26116h-8.38582v-3.51819c0,-0.82466 -0.08032,-1.45654 -0.24097,-1.89565c-0.16065,-0.44982 -0.39626,-0.7604 -0.70685,-0.93176c-0.29988,-0.18207 -0.66401,-0.2731 -1.09241,-0.2731c-0.4284,0 -0.78717,0.1178 -1.07634,0.35342c-0.27845,0.22491 -0.4873,0.59439 -0.62653,1.10847c-0.13923,0.51408 -0.20884,1.23699 -0.20884,2.16875v12.83577c0,1.38158 0.166,2.32404 0.49801,2.82741c0.34271,0.50336 0.83537,0.75505 1.47796,0.75505c0.46052,0 0.83002,-0.09639 1.10847,-0.28917c0.28917,-0.20349 0.50336,-0.52478 0.64259,-0.96389c0.14994,-0.44982 0.22491,-1.04957 0.22491,-1.79926v-4.11259h8.38582v3.7431c0,2.067 -0.41768,3.802 -1.25305,5.20499c-0.83537,1.40299 -2.02952,2.45256 -3.58245,3.1487c-1.55293,0.69614 -3.41645,1.04421 -5.59055,1.04421z" fill="#0096ff"/><path d="" fill="#000000"/><path d="" fill="#000000"/><path d="" fill="#000000"/><path d="" fill="#000000"/><path d="M45.56671,251.07409v-8.24124h8.24124v8.24124z" fill="#0096ff"/></g></g></svg>