<svg version="1.1" xmlns="http://www.w3.org/2000/svg" xmlns:xlink="http://www.w3.org/1999/xlink" width="511.84777" height="171.83654" viewBox="0,0,511.84777,171.83654"><g transform="translate(15.92389,-94.08173)"><g data-paper-data="{&quot;isPaintingLayer&quot;:true}" fill-rule="nonzero" stroke="none" stroke-width="1" stroke-linejoin="miter" stroke-miterlimit="10" stroke-dasharray="" stroke-dashoffset="0" style="mix-blend-mode: normal"><path d="" fill="#000000" stroke-linecap="butt"/><path d="" fill="#000000" stroke-linecap="butt"/><path d="" fill="#000000" stroke-linecap="butt"/><path d="" fill="#000000" stroke-linecap="butt"/><path d="" fill="#000000" stroke-linecap="butt"/><path d="" fill-opacity="0" fill="#000000" stroke-linecap="square"/><path d="" fill-opacity="0" fill="#000000" stroke-linecap="square"/><g stroke-linecap="butt"><path d="M59.89505,211.07782v-98.78399h25.00301c8.62956,0 15.33995,1.08036 20.13127,3.24109c4.79121,2.1473 8.15988,5.52269 10.10586,10.12599c1.95946,4.58989 2.93918,10.54209 2.93918,17.85641v35.85378c0,7.39485 -0.97972,13.43425 -2.93918,18.11811c-1.946,4.67045 -5.29452,8.10612 -10.04546,10.30719c-4.75094,2.18758 -11.401,3.28137 -19.95007,3.28137zM81.73745,195.95922h3.40223c3.3418,0 5.74414,-0.48985 7.20696,-1.46957c1.46287,-0.97972 2.37547,-2.44262 2.73788,-4.38859c0.36234,-1.946 0.54359,-4.38188 0.54359,-7.30765v-43.06072c0,-2.9258 -0.22145,-5.28111 -0.66435,-7.06607c-0.44288,-1.79844 -1.39572,-3.10022 -2.85865,-3.90544c-1.46287,-0.8187 -3.82496,-1.22799 -7.0862,-1.22799h-3.28137z" fill="#004cad"/><path d="M413.68645,211.07782v-98.78399h27.19734c6.67012,0 12.44115,0.73142 17.3129,2.1943c4.88516,1.46287 8.68999,4.08668 11.41441,7.87129c2.7244,3.78468 4.08668,9.12614 4.08668,16.02445c0,4.06653 -0.3288,7.69012 -0.98639,10.87087c-0.6442,3.1673 -1.83865,5.9119 -3.58338,8.2337c-1.74466,2.30839 -4.24773,4.23432 -7.50897,5.77768l13.54837,47.81168h-22.56714l-10.85077,-44.26856h-6.22055v44.26856zM435.52884,154.24727h6.09974c3.08681,0 5.48241,-0.55023 7.18691,-1.65081c1.70447,-1.10048 2.8989,-2.68419 3.58338,-4.75094c0.69786,-2.08023 1.04679,-4.58325 1.04679,-7.50897c0,-4.22758 -0.7717,-7.51569 -2.31506,-9.86429c-1.54336,-2.36208 -4.38859,-3.5431 -8.53561,-3.5431h-7.06607z" fill="#004cad"/><path d="M219.89997,211.07782v-98.78399h33.17631c5.93198,0 10.81049,1.12063 14.63545,3.36195c3.82496,2.22786 6.67012,5.47569 8.53561,9.74355c1.87893,4.26783 2.81837,9.45492 2.81837,15.56148c0,7.63645 -1.26158,13.46779 -3.78468,17.49407c-2.5231,4.02625 -5.93869,6.81111 -10.24675,8.35447c-4.30804,1.54336 -9.14627,2.31513 -14.51461,2.31513h-8.77721v41.9535zM241.74235,153.88493h7.30765c2.68419,0 4.7174,-0.48985 6.09974,-1.46957c1.38234,-0.97972 2.29501,-2.44262 2.73788,-4.38859c0.45629,-1.946 0.68445,-4.42887 0.68445,-7.44854c0,-2.50972 -0.18791,-4.7174 -0.56364,-6.62317c-0.36234,-1.91918 -1.23471,-3.44915 -2.61704,-4.58989c-1.38234,-1.14076 -3.53636,-1.71114 -6.46213,-1.71114h-7.18683z" fill="#004cad"/><path d="M289.53629,112.29375h33.17623c5.93205,0 10.81049,1.12063 14.63545,3.36195c3.82496,2.22786 6.67012,5.47569 8.53561,9.74355c1.87893,4.26783 2.81837,9.45492 2.81837,15.56148c0,7.63645 -1.26158,13.46779 -3.78468,17.49407c-2.5231,4.02625 -5.93869,6.81111 -10.24675,8.35447c-4.30804,1.54336 -9.14627,2.31513 -14.51461,2.31513h-8.77721v41.9535h-21.84241zM311.3786,153.88493h7.30765c2.68414,0 4.7174,-0.48985 6.09974,-1.46957c1.38234,-0.97972 2.29501,-2.44262 2.73788,-4.38859c0.45629,-1.946 0.68445,-4.42887 0.68445,-7.44854c0,-2.50972 -0.18791,-4.7174 -0.56364,-6.62317c-0.36234,-1.91918 -1.23471,-3.44915 -2.61704,-4.58989c-1.38234,-1.14076 -3.53636,-1.71114 -6.46213,-1.71114h-7.18683z" fill="#004cad"/><path d="M-10.40464,211.33546l19.16493,-53.16661c0,0 -6.56171,-28.51575 -19.58768,-55.15151c-2.35217,-4.80972 -5.0965,-8.65022 -5.0965,-8.65022c0,0 4.11557,-0.70079 6.49456,0.09394c0.27735,0.09269 1.07915,1.22004 1.31234,1.3507c2.4064,1.34767 1.59518,3.84614 4.86983,6.43924c6.89395,5.45884 7.13007,4.89766 14.83788,14.93886c3.48456,4.53938 10.33538,22.07589 10.33538,22.07589l8.77721,-26.71416h18.17855l-17.33298,51.33463l19.28577,47.44931h-20.49358l-12.07873,-29.5124l-10.60917,29.5124z" fill="#004cad"/><path d="M359.17252,211.07782v-98.78399h44.40952v14.87702h-22.56714v24.51986h17.19206v15.1186h-17.19206v29.5124h22.80872v14.75619z" fill="#004cad"/><path d="M126.62034,211.07782v-13.16581l24.13739,-70.86197h-23.05022v-14.75619h44.51016v12.32031l-24.49973,71.70747h24.74131v14.75619z" fill="#004cad"/><path d="M183.33236,211.07782v-98.78399h21.82226v98.78399z" fill="#004cad"/><path d="M66.33707,211.07782v-98.78399h25.00301c8.62956,0 15.33995,1.08036 20.13127,3.24109c4.79121,2.1473 8.15988,5.52269 10.10586,10.12599c1.95946,4.58989 2.93918,10.54209 2.93918,17.85641v35.85378c0,7.39485 -0.97972,13.43425 -2.93918,18.11811c-1.946,4.67045 -5.29452,8.10612 -10.04546,10.30719c-4.75094,2.18758 -11.401,3.28137 -19.95007,3.28137zM88.17945,195.95922h3.40223c3.3418,0 5.74414,-0.48985 7.20696,-1.46957c1.46287,-0.97972 2.37547,-2.44262 2.73788,-4.38859c0.36234,-1.946 0.54359,-4.38188 0.54359,-7.30765v-43.06072c0,-2.9258 -0.22145,-5.28111 -0.66435,-7.06607c-0.44288,-1.79844 -1.39572,-3.10022 -2.85865,-3.90544c-1.46287,-0.8187 -3.82496,-1.22799 -7.0862,-1.22799h-3.28137z" fill="#0096ff"/><path d="M420.12845,211.07782v-98.78399h27.19734c6.67012,0 12.44115,0.73142 17.3129,2.1943c4.88516,1.46287 8.68999,4.08668 11.41441,7.87129c2.7244,3.78468 4.08668,9.12614 4.08668,16.02445c0,4.06653 -0.3288,7.69012 -0.98639,10.87087c-0.6442,3.1673 -1.83865,5.9119 -3.58338,8.2337c-1.74466,2.30839 -4.24773,4.23432 -7.50897,5.77768l13.54837,47.81168h-22.56714l-10.85077,-44.26856h-6.22055v44.26856zM441.97086,154.24727h6.09974c3.08681,0 5.48241,-0.55023 7.18691,-1.65081c1.70447,-1.10048 2.8989,-2.68419 3.58338,-4.75094c0.69786,-2.08023 1.04679,-4.58325 1.04679,-7.50897c0,-4.22758 -0.7717,-7.51569 -2.31506,-9.86429c-1.54336,-2.36208 -4.38859,-3.5431 -8.53561,-3.5431h-7.06607z" fill="#0096ff"/><path d="M226.34197,211.07782v-98.78399h33.17631c5.93205,0 10.81049,1.12063 14.63545,3.36195c3.82496,2.22786 6.67012,5.47569 8.53561,9.74355c1.87893,4.26783 2.81837,9.45492 2.81837,15.56148c0,7.63645 -1.26158,13.46779 -3.78468,17.49407c-2.5231,4.02625 -5.93869,6.81111 -10.24675,8.35447c-4.30804,1.54336 -9.14627,2.31513 -14.51461,2.31513h-8.77721v41.9535zM248.18438,153.88493h7.30765c2.68419,0 4.7174,-0.48985 6.09974,-1.46957c1.38234,-0.97972 2.29501,-2.44262 2.73788,-4.38859c0.45629,-1.946 0.68445,-4.42887 0.68445,-7.44854c0,-2.50972 -0.18791,-4.7174 -0.56364,-6.62317c-0.36234,-1.91918 -1.23471,-3.44915 -2.61704,-4.58989c-1.38234,-1.14076 -3.53636,-1.71114 -6.46213,-1.71114h-7.18683z" fill="#0096ff"/><path d="M295.97829,112.29375h33.17623c5.93205,0 10.81049,1.12063 14.63545,3.36195c3.82496,2.22786 6.67012,5.47569 8.53561,9.74355c1.87893,4.26783 2.81837,9.45492 2.81837,15.56148c0,7.63645 -1.26158,13.46779 -3.78468,17.49407c-2.5231,4.02625 -5.93869,6.81111 -10.24675,8.35447c-4.30804,1.54336 -9.14627,2.31513 -14.51461,2.31513h-8.77721v41.9535h-21.84241zM317.82053,153.88493h7.30765c2.68414,0 4.7174,-0.48985 6.09974,-1.46957c1.38234,-0.97972 2.29501,-2.44262 2.73788,-4.38859c0.45629,-1.946 0.68445,-4.42887 0.68445,-7.44854c0,-2.50972 -0.18791,-4.7174 -0.56364,-6.62317c-0.36234,-1.91918 -1.23471,-3.44915 -2.61704,-4.58989c-1.38234,-1.14076 -3.53636,-1.71114 -6.46213,-1.71114h-7.18683z" fill="#0096ff"/><path d="M-3.96262,211.33546l19.16493,-53.16661c0,0 -6.56171,-28.51575 -19.58768,-55.15151c-2.35217,-4.80972 -5.0965,-8.65022 -5.0965,-8.65022c0,0 6.36228,2.88379 12.67672,7.88381c6.89395,5.45884 7.13007,4.89766 14.83788,14.93886c3.48456,4.53938 10.33538,22.07589 10.33538,22.07589l8.77721,-26.71416h18.17855l-17.33298,51.33463l19.28577,47.44931h-20.49358l-12.07873,-29.5124l-10.60917,29.5124z" fill="#0096ff"/><path d="M365.61454,211.07782v-98.78399h44.40952v14.87702h-22.56714v24.51986h17.19206v15.1186h-17.19206v29.5124h22.80872v14.75619z" fill="#0096ff"/><path d="M133.06234,211.07782v-13.16581l24.13739,-70.86197h-23.05022v-14.75619h44.51016v12.32031l-24.49973,71.70747h24.74131v14.75619z" fill="#0096ff"/><path d="M189.77438,211.07782v-98.78399h21.82226v98.78399z" fill="#0096ff"/><path d="M484.29499,244.59491c1.11202,2.2739 4.1369,3.76393 6.59945,5.27781c2.74617,1.68824 4.88944,3.2733 4.88944,3.2733c0,0 -6.09511,-1.80592 -11.44718,-3.91555c-3.37049,-1.3285 -6.35659,-2.86716 -7.62201,-3.86915c-6.89395,-5.45884 -7.13007,-4.89766 -14.83788,-14.93886c-1.91768,-2.49825 -5.0965,-8.85236 -7.35024,-14.13416c-0.94852,-2.22281 -1.3536,-3.80212 -1.93304,-5.23717c1.74566,0.04259 3.56726,-0.09463 5.29218,-0.11538c4.35297,-0.05248 8.57582,-0.09178 12.98215,0.01085c3.21983,9.85589 7.69828,21.93389 13.42707,33.64824z" data-paper-data="{&quot;index&quot;:null}" fill="#004cad"/><path d="M490.82739,244.59491c2.35217,4.80972 5.0965,8.65022 5.0965,8.65022c0,0 -6.36228,-2.88379 -12.67672,-7.88381c-6.89395,-5.45884 -7.13007,-4.89766 -14.83788,-14.93886c-2.43393,-3.17072 -6.44987,-12.2602 -8.66184,-17.60853c-0.18956,-0.4583 -0.35678,-0.88915 -0.51175,-1.28645c-0.08541,-0.21889 -0.14448,-0.42762 -0.22406,-0.62518c0.01813,0.00052 6.17274,-1.38561 12.16601,-1.39656c4.08233,-0.00748 7.90394,1.34034 10.38735,1.39454c3.2232,9.8824 3.50553,21.9225 9.26246,33.6945z" data-paper-data="{&quot;index&quot;:null}" fill="#0096ff"/><g><path d="M68.81271,265.23524v-39.82268h11.01125v3.18752c1.47646,-1.43504 3.00116,-2.44928 4.57427,-3.04257c1.58686,-0.59336 3.20817,-0.89006 4.86397,-0.89006c1.61442,0 3.00116,0.40014 4.16028,1.2005c1.17287,0.80027 2.06293,1.98011 2.67005,3.53936c1.55923,-1.73863 3.19441,-2.95978 4.90538,-3.66354c1.72485,-0.71757 3.46345,-1.0763 5.21586,-1.0763c1.55923,0 2.9115,0.37947 4.05681,1.13835c1.14524,0.75888 2.04219,1.86281 2.69071,3.31163c0.64853,1.43504 0.97276,3.16678 0.97276,5.19519v30.92266h-11.03199v-29.76354c0,-1.10385 -0.19315,-1.89044 -0.57951,-2.35952c-0.38636,-0.48296 -0.97276,-0.72446 -1.75937,-0.72446c-0.45533,0 -1.02802,0.12418 -1.71796,0.37258c-0.68994,0.24839 -1.35914,0.60025 -2.00766,1.05558c0,0.09655 0,0.17937 0,0.24839c0,0.06902 0,0.15182 0,0.24839v30.92266h-10.88706v-29.76354c0,-1.10385 -0.20701,-1.89044 -0.62092,-2.35952c-0.41399,-0.48296 -1.00728,-0.72446 -1.78001,-0.72446c-0.51056,0 -1.09696,0.12418 -1.75937,0.37258c-0.66231,0.24839 -1.31775,0.60025 -1.96625,1.05558v31.41935z" fill="#0066af"/><path d="M48.62342,265.91827c-2.84253,0 -5.31248,-0.47607 -7.40983,-1.42815c-2.08357,-0.96587 -3.6911,-2.41476 -4.82256,-4.34654c-1.11771,-1.93183 -1.67655,-4.34654 -1.67655,-7.24424v-15.15086c0,-2.89772 0.55884,-5.30552 1.67655,-7.22357c1.13146,-1.93183 2.73901,-3.38065 4.82256,-4.34654c2.09735,-0.96587 4.56738,-1.44882 7.40983,-1.44882c2.84253,0 5.30552,0.48296 7.38917,1.44882c2.09735,0.96587 3.71873,2.41476 4.86397,4.34654c1.15909,1.918 1.73863,4.32587 1.73863,7.22357v15.15086c0,2.89772 -0.57951,5.31248 -1.73863,7.24424c-1.14524,1.93183 -2.76665,3.38065 -4.86397,4.34654c-2.08357,0.95209 -4.54664,1.42815 -7.38917,1.42815zM48.68548,258.48769c0.7451,0 1.32471,-0.19315 1.73863,-0.57951c0.41399,-0.40014 0.69683,-0.95209 0.84864,-1.6558c0.1656,-0.71757 0.24839,-1.5799 0.24839,-2.58725v-16.66181c0,-1.02113 -0.0828,-1.88355 -0.24839,-2.58725c-0.15182,-0.71757 -0.43466,-1.26945 -0.84864,-1.6558c-0.41399,-0.38636 -0.9935,-0.57951 -1.73863,-0.57951c-0.73133,0 -1.30397,0.19315 -1.71796,0.57951c-0.41399,0.38636 -0.71058,0.93831 -0.88998,1.6558c-0.17937,0.70372 -0.26906,1.56612 -0.26906,2.58725v16.66181c0,1.00728 0.08969,1.8697 0.26906,2.58725c0.17937,0.70372 0.47607,1.25567 0.88998,1.6558c0.41399,0.38636 0.98661,0.57951 1.71796,0.57951z" fill="#0066af"/><path d="M16.24141,265.91827c-2.88394,0 -5.34693,-0.52432 -7.38917,-1.57301c-2.04219,-1.06252 -3.61529,-2.58028 -4.71912,-4.55353c-1.10385,-1.97322 -1.6558,-4.36037 -1.6558,-7.16144v-14.61269c0,-2.84253 0.55195,-5.25033 1.6558,-7.22357c1.10385,-1.97322 2.67693,-3.47723 4.71912,-4.51211c2.04219,-1.03491 4.50522,-1.55234 7.38917,-1.55234c2.85631,0 5.27796,0.44155 7.26498,1.32461c2.00077,0.86931 3.52551,2.18711 4.57427,3.95327c1.06252,1.76623 1.59375,4.00155 1.59375,6.70612v4.20169h-10.80424v-4.53286c0,-1.06252 -0.10344,-1.87659 -0.31045,-2.44232c-0.20701,-0.57951 -0.51056,-0.97972 -0.91072,-1.2005c-0.38636,-0.23454 -0.85553,-0.35186 -1.40749,-0.35186c-0.55195,0 -1.01417,0.15174 -1.38674,0.45533c-0.35875,0.2898 -0.62788,0.76585 -0.80723,1.42815c-0.17937,0.66231 -0.26906,1.59375 -0.26906,2.79423v16.53763c0,1.78001 0.21387,2.99427 0.64164,3.64282c0.44155,0.64853 1.0763,0.97283 1.90422,0.97283c0.59336,0 1.06941,-0.12418 1.42815,-0.37258c0.37258,-0.26217 0.64853,-0.67616 0.8279,-1.24189c0.19315,-0.57951 0.2898,-1.35225 0.2898,-2.31821v-5.29863h10.80424v4.82256c0,2.66308 -0.5381,4.89849 -1.61442,6.70612c-1.0763,1.80762 -2.61481,3.15989 -4.61568,4.05681c-2.00077,0.89695 -4.40178,1.34536 -7.20285,1.34536z" fill="#004cad"/><path d="M-13.7162,265.23524v-10.618h10.618v10.618z" fill="#0066af"/></g><path d="M72.0211,265.23524v-39.82268h11.01125v3.18752c1.47646,-1.43504 3.00116,-2.44928 4.57427,-3.04257c1.58686,-0.59336 3.20817,-0.89006 4.86397,-0.89006c1.61442,0 3.00116,0.40014 4.16028,1.2005c1.17287,0.80027 2.06293,1.98011 2.67005,3.53936c1.55923,-1.73863 3.19441,-2.95978 4.90538,-3.66354c1.72485,-0.71757 3.46345,-1.0763 5.21586,-1.0763c1.55923,0 2.9115,0.37947 4.05681,1.13835c1.14524,0.75888 2.04219,1.86281 2.69071,3.31163c0.64853,1.43504 0.97276,3.16678 0.97276,5.19519v30.92266h-11.03199v-29.76354c0,-1.10385 -0.19315,-1.89044 -0.57951,-2.35952c-0.38636,-0.48296 -0.97276,-0.72446 -1.75937,-0.72446c-0.45533,0 -1.02802,0.12418 -1.71796,0.37258c-0.68994,0.24839 -1.35914,0.60025 -2.00766,1.05558c0,0.09655 0,0.17937 0,0.24839c0,0.06902 0,0.15182 0,0.24839v30.92266h-10.88706v-29.76354c0,-1.10385 -0.20701,-1.89044 -0.62092,-2.35952c-0.41399,-0.48296 -1.00728,-0.72446 -1.78001,-0.72446c-0.51056,0 -1.09696,0.12418 -1.75937,0.37258c-0.66231,0.24839 -1.31775,0.60025 -1.96625,1.05558v31.41935z" fill="#0096ff"/><path d="M51.83191,265.91827c-2.84253,0 -5.31248,-0.47607 -7.40983,-1.42815c-2.08357,-0.96587 -3.6911,-2.41476 -4.82256,-4.34654c-1.11771,-1.93183 -1.67655,-4.34654 -1.67655,-7.24424v-15.15086c0,-2.89772 0.55884,-5.30552 1.67655,-7.22357c1.13146,-1.93183 2.73901,-3.38065 4.82256,-4.34654c2.09735,-0.96587 4.56738,-1.44882 7.40983,-1.44882c2.84253,0 5.30552,0.48296 7.38917,1.44882c2.09735,0.96587 3.71873,2.41476 4.86397,4.34654c1.15909,1.918 1.73863,4.32587 1.73863,7.22357v15.15086c0,2.89772 -0.57951,5.31248 -1.73863,7.24424c-1.14524,1.93183 -2.76665,3.38065 -4.86397,4.34654c-2.08357,0.95209 -4.54664,1.42815 -7.38917,1.42815zM51.89394,258.48769c0.7451,0 1.32471,-0.19315 1.73863,-0.57951c0.41399,-0.40014 0.69683,-0.95209 0.84864,-1.6558c0.1656,-0.71757 0.24839,-1.5799 0.24839,-2.58725v-16.66181c0,-1.02113 -0.0828,-1.88355 -0.24839,-2.58725c-0.15182,-0.71757 -0.43466,-1.26945 -0.84864,-1.6558c-0.41399,-0.38636 -0.9935,-0.57951 -1.73863,-0.57951c-0.73133,0 -1.30397,0.19315 -1.71796,0.57951c-0.41399,0.38636 -0.71058,0.93831 -0.88998,1.6558c-0.17937,0.70372 -0.26906,1.56612 -0.26906,2.58725v16.66181c0,1.00728 0.08969,1.8697 0.26906,2.58725c0.17937,0.70372 0.47607,1.25567 0.88998,1.6558c0.41399,0.38636 0.98661,0.57951 1.71796,0.57951z" fill="#0096ff"/><path d="M19.44987,265.91827c-2.88394,0 -5.34693,-0.52432 -7.38917,-1.57301c-2.04219,-1.06252 -3.61529,-2.58028 -4.71912,-4.55353c-1.10385,-1.97322 -1.6558,-4.36037 -1.6558,-7.16144v-14.61269c0,-2.84253 0.55195,-5.25033 1.6558,-7.22357c1.10385,-1.97322 2.67693,-3.47723 4.71912,-4.51211c2.04219,-1.03491 4.50522,-1.55234 7.38917,-1.55234c2.85631,0 5.27796,0.44155 7.26498,1.32461c2.00077,0.86931 3.52551,2.18711 4.57427,3.95327c1.06252,1.76623 1.59375,4.00155 1.59375,6.70612v4.20169h-10.80424v-4.53286c0,-1.06252 -0.10344,-1.87659 -0.31045,-2.44232c-0.20701,-0.57951 -0.51056,-0.97972 -0.91072,-1.2005c-0.38636,-0.23454 -0.85553,-0.35186 -1.40749,-0.35186c-0.55195,0 -1.01417,0.15174 -1.38674,0.45533c-0.35875,0.2898 -0.62788,0.76585 -0.80723,1.42815c-0.17937,0.66231 -0.26906,1.59375 -0.26906,2.79423v16.53763c0,1.78001 0.21387,2.99427 0.64164,3.64282c0.44155,0.64853 1.0763,0.97283 1.90422,0.97283c0.59336,0 1.06941,-0.12418 1.42815,-0.37258c0.37258,-0.26217 0.64853,-0.67616 0.8279,-1.24189c0.19315,-0.57951 0.2898,-1.35225 0.2898,-2.31821v-5.29863h10.80424v4.82256c0,2.66308 -0.5381,4.89849 -1.61442,6.70612c-1.0763,1.80762 -2.61481,3.15989 -4.61568,4.05681c-2.00077,0.89695 -4.40178,1.34536 -7.20285,1.34536z" fill="#0096ff"/><path d="M-10.50779,265.23524v-10.618h10.618v10.618z" fill="#0096ff"/></g></g></g></svg>